<mxfile host="app.diagrams.net" agent="Mozilla/5.0 (Windows NT 10.0; Win64; x64) AppleWebKit/537.36 (KHTML, like Gecko) Chrome/127.0.0.0 Safari/537.36 OPR/113.0.0.0" version="24.7.17">
  <diagram name="Página-1" id="Z4mrTOtNPYBhbMwCcj5X">
    <mxGraphModel dx="841" dy="478" grid="1" gridSize="10" guides="1" tooltips="1" connect="1" arrows="1" fold="1" page="1" pageScale="1" pageWidth="827" pageHeight="1169" math="0" shadow="0">
      <root>
        <mxCell id="0" />
        <mxCell id="1" parent="0" />
        <mxCell id="7dysvG6r1pBAgYWHEIjK-5" style="edgeStyle=orthogonalEdgeStyle;rounded=0;orthogonalLoop=1;jettySize=auto;html=1;entryX=0.5;entryY=0;entryDx=0;entryDy=0;" edge="1" parent="1" source="7dysvG6r1pBAgYWHEIjK-1" target="7dysvG6r1pBAgYWHEIjK-2">
          <mxGeometry relative="1" as="geometry" />
        </mxCell>
        <mxCell id="7dysvG6r1pBAgYWHEIjK-1" value="Ínicio" style="ellipse;whiteSpace=wrap;html=1;aspect=fixed;" vertex="1" parent="1">
          <mxGeometry x="360" y="80" width="80" height="80" as="geometry" />
        </mxCell>
        <mxCell id="7dysvG6r1pBAgYWHEIjK-6" style="edgeStyle=orthogonalEdgeStyle;rounded=0;orthogonalLoop=1;jettySize=auto;html=1;" edge="1" parent="1" source="7dysvG6r1pBAgYWHEIjK-2" target="7dysvG6r1pBAgYWHEIjK-3">
          <mxGeometry relative="1" as="geometry" />
        </mxCell>
        <mxCell id="7dysvG6r1pBAgYWHEIjK-2" value="Ler KM_inicial, KM_final, litros_gastos" style="shape=parallelogram;perimeter=parallelogramPerimeter;whiteSpace=wrap;html=1;fixedSize=1;" vertex="1" parent="1">
          <mxGeometry x="285" y="190" width="230" height="50" as="geometry" />
        </mxCell>
        <mxCell id="7dysvG6r1pBAgYWHEIjK-12" style="edgeStyle=orthogonalEdgeStyle;rounded=0;orthogonalLoop=1;jettySize=auto;html=1;" edge="1" parent="1" source="7dysvG6r1pBAgYWHEIjK-3" target="7dysvG6r1pBAgYWHEIjK-11">
          <mxGeometry relative="1" as="geometry" />
        </mxCell>
        <mxCell id="7dysvG6r1pBAgYWHEIjK-3" value="Distancia = KM_final - KM_inicial&lt;div&gt;Consumo_KM = (litros_gastos / Distancia) * 100&lt;/div&gt;" style="rounded=0;whiteSpace=wrap;html=1;" vertex="1" parent="1">
          <mxGeometry x="224.38" y="280" width="351.25" height="60" as="geometry" />
        </mxCell>
        <mxCell id="7dysvG6r1pBAgYWHEIjK-9" value="Fim" style="ellipse;whiteSpace=wrap;html=1;aspect=fixed;" vertex="1" parent="1">
          <mxGeometry x="360" y="480" width="80" height="80" as="geometry" />
        </mxCell>
        <mxCell id="7dysvG6r1pBAgYWHEIjK-13" style="edgeStyle=orthogonalEdgeStyle;rounded=0;orthogonalLoop=1;jettySize=auto;html=1;entryX=0.5;entryY=0;entryDx=0;entryDy=0;" edge="1" parent="1" source="7dysvG6r1pBAgYWHEIjK-11" target="7dysvG6r1pBAgYWHEIjK-9">
          <mxGeometry relative="1" as="geometry" />
        </mxCell>
        <mxCell id="7dysvG6r1pBAgYWHEIjK-11" value="Escrever Consumo_KM" style="shape=parallelogram;perimeter=parallelogramPerimeter;whiteSpace=wrap;html=1;fixedSize=1;" vertex="1" parent="1">
          <mxGeometry x="340.01" y="380" width="120" height="60" as="geometry" />
        </mxCell>
      </root>
    </mxGraphModel>
  </diagram>
</mxfile>
